<?xml version="1.0" encoding="UTF-8" standalone="no"?>
<!DOCTYPE svg PUBLIC "-//W3C//DTD SVG 1.1//EN"
 "http://www.w3.org/Graphics/SVG/1.1/DTD/svg11.dtd">
<!-- Generated by graphviz version 2.43.0 (0)
 -->
<!-- Title: ldsgen::Sphere3Hopf Pages: 1 -->
<svg width="151pt" height="170pt"
 viewBox="0.00 0.00 151.00 170.00" xmlns="http://www.w3.org/2000/svg" xmlns:xlink="http://www.w3.org/1999/xlink">
<g id="graph0" class="graph" transform="scale(1 1) rotate(0) translate(4 166)">
<title>ldsgen::Sphere3Hopf</title>
<!-- Node1 -->
<g id="Node000001" class="node">
<title>Node1</title>
<g id="a_Node000001"><a xlink:title="S(3) sequence generator by Hopf fibration.">
<polygon fill="#999999" stroke="#666666" points="130.5,-19 12.5,-19 12.5,0 130.5,0 130.5,-19"/>
<text text-anchor="middle" x="71.5" y="-7" font-family="Helvetica,sans-Serif" font-size="10.00">ldsgen::Sphere3Hopf</text>
</a>
</g>
</g>
<!-- Node2 -->
<g id="Node000002" class="node">
<title>Node2</title>
<g id="a_Node000002"><a xlink:href="classldsgen_1_1GeneratorIterable.html" target="_top" xlink:title=" ">
<polygon fill="white" stroke="#666666" points="143,-96 0,-96 0,-55 143,-55 143,-96"/>
<text text-anchor="start" x="8" y="-84" font-family="Helvetica,sans-Serif" font-size="10.00">ldsgen::GeneratorIterable</text>
<text text-anchor="start" x="8" y="-73" font-family="Helvetica,sans-Serif" font-size="10.00">&lt; Sphere3Hopf, std::array</text>
<text text-anchor="middle" x="71.5" y="-62" font-family="Helvetica,sans-Serif" font-size="10.00">&lt; double, 4 &gt; &gt;</text>
</a>
</g>
</g>
<!-- Node2&#45;&gt;Node1 -->
<g id="edge1_Node000001_Node000002" class="edge">
<title>Node2&#45;&gt;Node1</title>
<g id="a_edge1_Node000001_Node000002"><a xlink:title=" ">
<path fill="none" stroke="#63b8ff" d="M71.5,-44.74C71.5,-35.45 71.5,-25.9 71.5,-19.26"/>
<polygon fill="#63b8ff" stroke="#63b8ff" points="68,-44.95 71.5,-54.95 75,-44.95 68,-44.95"/>
</a>
</g>
</g>
<!-- Node3 -->
<g id="Node000003" class="node">
<title>Node3</title>
<g id="a_Node000003"><a xlink:href="classldsgen_1_1GeneratorBase.html" target="_top" xlink:title="CRTP base implementing the sequence generator protocol.">
<polygon fill="white" stroke="#666666" points="135.5,-162 7.5,-162 7.5,-132 135.5,-132 135.5,-162"/>
<text text-anchor="start" x="15.5" y="-150" font-family="Helvetica,sans-Serif" font-size="10.00">ldsgen::GeneratorBase</text>
<text text-anchor="middle" x="71.5" y="-139" font-family="Helvetica,sans-Serif" font-size="10.00">&lt; Derived, Value &gt;</text>
</a>
</g>
</g>
<!-- Node3&#45;&gt;Node2 -->
<g id="edge2_Node000002_Node000003" class="edge">
<title>Node3&#45;&gt;Node2</title>
<g id="a_edge2_Node000002_Node000003"><a xlink:title=" ">
<path fill="none" stroke="#63b8ff" d="M71.5,-121.91C71.5,-113.47 71.5,-104.1 71.5,-96.07"/>
<polygon fill="#63b8ff" stroke="#63b8ff" points="68,-121.94 71.5,-131.94 75,-121.94 68,-121.94"/>
</a>
</g>
</g>
</g>
</svg>
