<?xml version="1.0" encoding="UTF-8" standalone="no"?>
<!DOCTYPE svg PUBLIC "-//W3C//DTD SVG 1.1//EN"
 "http://www.w3.org/Graphics/SVG/1.1/DTD/svg11.dtd">
<!-- Generated by graphviz version 2.43.0 (0)
 -->
<!-- Title: ldsgen/lds.hpp Pages: 1 -->
<svg width="350pt" height="82pt"
 viewBox="0.00 0.00 349.50 82.00" xmlns="http://www.w3.org/2000/svg" xmlns:xlink="http://www.w3.org/1999/xlink">
<g id="graph0" class="graph" transform="scale(1 1) rotate(0) translate(4 78)">
<title>ldsgen/lds.hpp</title>
<!-- Node1 -->
<g id="Node000001" class="node">
<title>Node1</title>
<g id="a_Node000001"><a xlink:title="Low&#45;discrepancy sequence generators with thread&#45;safe runtime polymorphism (ldsgen).">
<polygon fill="#999999" stroke="#666666" points="200.5,-74 113.5,-74 113.5,-55 200.5,-55 200.5,-74"/>
<text text-anchor="middle" x="157" y="-62" font-family="Helvetica,sans-Serif" font-size="10.00">ldsgen/lds.hpp</text>
</a>
</g>
</g>
<!-- Node2 -->
<g id="Node000002" class="node">
<title>Node2</title>
<g id="a_Node000002"><a xlink:href="ilds_8hpp.html" target="_top" xlink:title="Integer low&#45;discrepancy sequence generators with thread&#45;safe runtime (ildsgen).">
<polygon fill="white" stroke="#666666" points="90,-19 0,-19 0,0 90,0 90,-19"/>
<text text-anchor="middle" x="45" y="-7" font-family="Helvetica,sans-Serif" font-size="10.00">ldsgen/ilds.hpp</text>
</a>
</g>
</g>
<!-- Node1&#45;&gt;Node2 -->
<g id="edge1_Node000001_Node000002" class="edge">
<title>Node1&#45;&gt;Node2</title>
<g id="a_edge1_Node000001_Node000002"><a xlink:title=" ">
<path fill="none" stroke="#63b8ff" d="M129.81,-50.63C109.18,-40.87 81.38,-27.71 63.32,-19.17"/>
<polygon fill="#63b8ff" stroke="#63b8ff" points="128.47,-53.87 139.01,-54.98 131.46,-47.54 128.47,-53.87"/>
</a>
</g>
</g>
<!-- Node3 -->
<g id="Node000003" class="node">
<title>Node3</title>
<g id="a_Node000003"><a xlink:href="lds__n_8hpp.html" target="_top" xlink:title="N&#45;dimensional Halton sequence generator with runtime polymorphism.">
<polygon fill="white" stroke="#666666" points="206,-19 108,-19 108,0 206,0 206,-19"/>
<text text-anchor="middle" x="157" y="-7" font-family="Helvetica,sans-Serif" font-size="10.00">ldsgen/lds_n.hpp</text>
</a>
</g>
</g>
<!-- Node1&#45;&gt;Node3 -->
<g id="edge2_Node000001_Node000003" class="edge">
<title>Node1&#45;&gt;Node3</title>
<g id="a_edge2_Node000001_Node000003"><a xlink:title=" ">
<path fill="none" stroke="#63b8ff" d="M157,-44.66C157,-35.93 157,-25.99 157,-19.09"/>
<polygon fill="#63b8ff" stroke="#63b8ff" points="153.5,-44.75 157,-54.75 160.5,-44.75 153.5,-44.75"/>
</a>
</g>
</g>
<!-- Node4 -->
<g id="Node000004" class="node">
<title>Node4</title>
<g id="a_Node000004"><a xlink:href="sphere__n_8hpp.html" target="_top" xlink:title="N&#45;dimensional sphere sequence generators (Sphere3, SphereN, SphereWrapper).">
<polygon fill="white" stroke="#666666" points="341.5,-19 224.5,-19 224.5,0 341.5,0 341.5,-19"/>
<text text-anchor="middle" x="283" y="-7" font-family="Helvetica,sans-Serif" font-size="10.00">ldsgen/sphere_n.hpp</text>
</a>
</g>
</g>
<!-- Node1&#45;&gt;Node4 -->
<g id="edge3_Node000001_Node000004" class="edge">
<title>Node1&#45;&gt;Node4</title>
<g id="a_edge3_Node000001_Node000004"><a xlink:title=" ">
<path fill="none" stroke="#63b8ff" d="M186.65,-51.03C209.95,-41.23 241.8,-27.83 262.39,-19.17"/>
<polygon fill="#63b8ff" stroke="#63b8ff" points="185.1,-47.88 177.24,-54.98 187.82,-54.33 185.1,-47.88"/>
</a>
</g>
</g>
</g>
</svg>
