<?xml version="1.0" encoding="UTF-8" standalone="no"?>
<!DOCTYPE svg PUBLIC "-//W3C//DTD SVG 1.1//EN"
 "http://www.w3.org/Graphics/SVG/1.1/DTD/svg11.dtd">
<!-- Generated by graphviz version 2.43.0 (0)
 -->
<!-- Title: ldsgen/lds_n.hpp Pages: 1 -->
<svg width="467pt" height="137pt"
 viewBox="0.00 0.00 467.00 137.00" xmlns="http://www.w3.org/2000/svg" xmlns:xlink="http://www.w3.org/1999/xlink">
<g id="graph0" class="graph" transform="scale(1 1) rotate(0) translate(4 133)">
<title>ldsgen/lds_n.hpp</title>
<!-- Node1 -->
<g id="Node000001" class="node">
<title>Node1</title>
<g id="a_Node000001"><a xlink:title="N&#45;dimensional Halton sequence generator with runtime polymorphism.">
<polygon fill="#999999" stroke="#666666" points="205,-129 107,-129 107,-110 205,-110 205,-129"/>
<text text-anchor="middle" x="156" y="-117" font-family="Helvetica,sans-Serif" font-size="10.00">ldsgen/lds_n.hpp</text>
</a>
</g>
</g>
<!-- Node2 -->
<g id="Node000002" class="node">
<title>Node2</title>
<g id="a_Node000002"><a xlink:title=" ">
<polygon fill="#e0e0e0" stroke="#999999" points="114,-74 56,-74 56,-55 114,-55 114,-74"/>
<text text-anchor="middle" x="85" y="-62" font-family="Helvetica,sans-Serif" font-size="10.00">memory</text>
</a>
</g>
</g>
<!-- Node1&#45;&gt;Node2 -->
<g id="edge1_Node000001_Node000002" class="edge">
<title>Node1&#45;&gt;Node2</title>
<g id="a_edge1_Node000001_Node000002"><a xlink:title=" ">
<path fill="none" stroke="#63b8ff" d="M144.59,-109.98C133.89,-102 117.66,-89.88 104.84,-80.31"/>
<polygon fill="#63b8ff" stroke="#63b8ff" points="106.72,-77.35 96.61,-74.17 102.53,-82.96 106.72,-77.35"/>
</a>
</g>
</g>
<!-- Node3 -->
<g id="Node000003" class="node">
<title>Node3</title>
<g id="a_Node000003"><a xlink:title=" ">
<polygon fill="#e0e0e0" stroke="#999999" points="179.5,-74 132.5,-74 132.5,-55 179.5,-55 179.5,-74"/>
<text text-anchor="middle" x="156" y="-62" font-family="Helvetica,sans-Serif" font-size="10.00">vector</text>
</a>
</g>
</g>
<!-- Node1&#45;&gt;Node3 -->
<g id="edge2_Node000001_Node000003" class="edge">
<title>Node1&#45;&gt;Node3</title>
<g id="a_edge2_Node000001_Node000003"><a xlink:title=" ">
<path fill="none" stroke="#63b8ff" d="M156,-109.75C156,-102.8 156,-92.85 156,-84.13"/>
<polygon fill="#63b8ff" stroke="#63b8ff" points="159.5,-84.09 156,-74.09 152.5,-84.09 159.5,-84.09"/>
</a>
</g>
</g>
<!-- Node4 -->
<g id="Node000004" class="node">
<title>Node4</title>
<g id="a_Node000004"><a xlink:href="lds_8hpp.html" target="_top" xlink:title="Low&#45;discrepancy sequence generators with thread&#45;safe runtime polymorphism (ldsgen).">
<polygon fill="white" stroke="#666666" points="250,-74 198,-74 198,-55 250,-55 250,-74"/>
<text text-anchor="middle" x="224" y="-62" font-family="Helvetica,sans-Serif" font-size="10.00">lds.hpp</text>
</a>
</g>
</g>
<!-- Node1&#45;&gt;Node4 -->
<g id="edge3_Node000001_Node000004" class="edge">
<title>Node1&#45;&gt;Node4</title>
<g id="a_edge3_Node000001_Node000004"><a xlink:title=" ">
<path fill="none" stroke="#63b8ff" d="M166.93,-109.98C177.08,-102.07 192.42,-90.11 204.65,-80.58"/>
<polygon fill="#63b8ff" stroke="#63b8ff" points="207.14,-83.08 212.88,-74.17 202.84,-77.56 207.14,-83.08"/>
</a>
</g>
</g>
<!-- Node5 -->
<g id="Node000005" class="node">
<title>Node5</title>
<g id="a_Node000005"><a xlink:title=" ">
<polygon fill="#e0e0e0" stroke="#999999" points="42,-19 0,-19 0,0 42,0 42,-19"/>
<text text-anchor="middle" x="21" y="-7" font-family="Helvetica,sans-Serif" font-size="10.00">array</text>
</a>
</g>
</g>
<!-- Node4&#45;&gt;Node5 -->
<g id="edge4_Node000004_Node000005" class="edge">
<title>Node4&#45;&gt;Node5</title>
<g id="a_edge4_Node000004_Node000005"><a xlink:title=" ">
<path fill="none" stroke="#63b8ff" d="M197.86,-56.99C165.8,-48.95 109.53,-34.71 52.24,-19.29"/>
<polygon fill="#63b8ff" stroke="#63b8ff" points="52.85,-15.83 42.29,-16.6 51.03,-22.59 52.85,-15.83"/>
</a>
</g>
</g>
<!-- Node6 -->
<g id="Node000006" class="node">
<title>Node6</title>
<g id="a_Node000006"><a xlink:title=" ">
<polygon fill="#e0e0e0" stroke="#999999" points="110,-19 60,-19 60,0 110,0 110,-19"/>
<text text-anchor="middle" x="85" y="-7" font-family="Helvetica,sans-Serif" font-size="10.00">atomic</text>
</a>
</g>
</g>
<!-- Node4&#45;&gt;Node6 -->
<g id="edge5_Node000004_Node000006" class="edge">
<title>Node4&#45;&gt;Node6</title>
<g id="a_edge5_Node000004_Node000006"><a xlink:title=" ">
<path fill="none" stroke="#63b8ff" d="M201.67,-54.98C178.8,-46.27 143.04,-32.63 117.14,-22.75"/>
<polygon fill="#63b8ff" stroke="#63b8ff" points="118.33,-19.46 107.74,-19.17 115.84,-26 118.33,-19.46"/>
</a>
</g>
</g>
<!-- Node7 -->
<g id="Node000007" class="node">
<title>Node7</title>
<g id="a_Node000007"><a xlink:title=" ">
<polygon fill="#e0e0e0" stroke="#999999" points="175.5,-19 128.5,-19 128.5,0 175.5,0 175.5,-19"/>
<text text-anchor="middle" x="152" y="-7" font-family="Helvetica,sans-Serif" font-size="10.00">cmath</text>
</a>
</g>
</g>
<!-- Node4&#45;&gt;Node7 -->
<g id="edge6_Node000004_Node000007" class="edge">
<title>Node4&#45;&gt;Node7</title>
<g id="a_edge6_Node000004_Node000007"><a xlink:title=" ">
<path fill="none" stroke="#63b8ff" d="M212.43,-54.98C201.58,-47 185.12,-34.88 172.12,-25.31"/>
<polygon fill="#63b8ff" stroke="#63b8ff" points="173.91,-22.28 163.78,-19.17 169.76,-27.92 173.91,-22.28"/>
</a>
</g>
</g>
<!-- Node8 -->
<g id="Node000008" class="node">
<title>Node8</title>
<g id="a_Node000008"><a xlink:title=" ">
<polygon fill="#e0e0e0" stroke="#999999" points="254,-19 194,-19 194,0 254,0 254,-19"/>
<text text-anchor="middle" x="224" y="-7" font-family="Helvetica,sans-Serif" font-size="10.00">concepts</text>
</a>
</g>
</g>
<!-- Node4&#45;&gt;Node8 -->
<g id="edge7_Node000004_Node000008" class="edge">
<title>Node4&#45;&gt;Node8</title>
<g id="a_edge7_Node000004_Node000008"><a xlink:title=" ">
<path fill="none" stroke="#63b8ff" d="M224,-54.75C224,-47.8 224,-37.85 224,-29.13"/>
<polygon fill="#63b8ff" stroke="#63b8ff" points="227.5,-29.09 224,-19.09 220.5,-29.09 227.5,-29.09"/>
</a>
</g>
</g>
<!-- Node9 -->
<g id="Node000009" class="node">
<title>Node9</title>
<g id="a_Node000009"><a xlink:title=" ">
<polygon fill="#e0e0e0" stroke="#999999" points="325.5,-19 272.5,-19 272.5,0 325.5,0 325.5,-19"/>
<text text-anchor="middle" x="299" y="-7" font-family="Helvetica,sans-Serif" font-size="10.00">cstddef</text>
</a>
</g>
</g>
<!-- Node4&#45;&gt;Node9 -->
<g id="edge8_Node000004_Node000009" class="edge">
<title>Node4&#45;&gt;Node9</title>
<g id="a_edge8_Node000004_Node000009"><a xlink:title=" ">
<path fill="none" stroke="#63b8ff" d="M236.05,-54.98C247.46,-46.92 264.83,-34.65 278.43,-25.03"/>
<polygon fill="#63b8ff" stroke="#63b8ff" points="280.58,-27.8 286.73,-19.17 276.54,-22.08 280.58,-27.8"/>
</a>
</g>
</g>
<!-- Node10 -->
<g id="Node000010" class="node">
<title>Node10</title>
<g id="a_Node000010"><a xlink:title=" ">
<polygon fill="#e0e0e0" stroke="#999999" points="396.5,-19 343.5,-19 343.5,0 396.5,0 396.5,-19"/>
<text text-anchor="middle" x="370" y="-7" font-family="Helvetica,sans-Serif" font-size="10.00">iterator</text>
</a>
</g>
</g>
<!-- Node4&#45;&gt;Node10 -->
<g id="edge9_Node000004_Node000010" class="edge">
<title>Node4&#45;&gt;Node10</title>
<g id="a_edge9_Node000004_Node000010"><a xlink:title=" ">
<path fill="none" stroke="#63b8ff" d="M247.46,-54.98C271.58,-46.23 309.37,-32.51 336.6,-22.62"/>
<polygon fill="#63b8ff" stroke="#63b8ff" points="337.91,-25.87 346.12,-19.17 335.52,-19.29 337.91,-25.87"/>
</a>
</g>
</g>
<!-- Node11 -->
<g id="Node000011" class="node">
<title>Node11</title>
<g id="a_Node000011"><a xlink:title=" ">
<polygon fill="#e0e0e0" stroke="#999999" points="459,-19 415,-19 415,0 459,0 459,-19"/>
<text text-anchor="middle" x="437" y="-7" font-family="Helvetica,sans-Serif" font-size="10.00">limits</text>
</a>
</g>
</g>
<!-- Node4&#45;&gt;Node11 -->
<g id="edge10_Node000004_Node000011" class="edge">
<title>Node4&#45;&gt;Node11</title>
<g id="a_edge10_Node000004_Node000011"><a xlink:title=" ">
<path fill="none" stroke="#63b8ff" d="M250.28,-57.32C283.91,-49.35 344.21,-34.89 404.93,-19.23"/>
<polygon fill="#63b8ff" stroke="#63b8ff" points="405.87,-22.6 414.67,-16.7 404.11,-15.82 405.87,-22.6"/>
</a>
</g>
</g>
</g>
</svg>
