<?xml version="1.0" encoding="UTF-8" standalone="no"?>
<!DOCTYPE svg PUBLIC "-//W3C//DTD SVG 1.1//EN"
 "http://www.w3.org/Graphics/SVG/1.1/DTD/svg11.dtd">
<!-- Generated by graphviz version 2.43.0 (0)
 -->
<!-- Title: ldsgen/sphere_n.hpp Pages: 1 -->
<svg width="467pt" height="137pt"
 viewBox="0.00 0.00 467.00 137.00" xmlns="http://www.w3.org/2000/svg" xmlns:xlink="http://www.w3.org/1999/xlink">
<g id="graph0" class="graph" transform="scale(1 1) rotate(0) translate(4 133)">
<title>ldsgen/sphere_n.hpp</title>
<!-- Node1 -->
<g id="Node000001" class="node">
<title>Node1</title>
<g id="a_Node000001"><a xlink:title="N&#45;dimensional sphere sequence generators (Sphere3, SphereN, SphereWrapper).">
<polygon fill="#999999" stroke="#666666" points="286.5,-129 169.5,-129 169.5,-110 286.5,-110 286.5,-129"/>
<text text-anchor="middle" x="228" y="-117" font-family="Helvetica,sans-Serif" font-size="10.00">ldsgen/sphere_n.hpp</text>
</a>
</g>
</g>
<!-- Node2 -->
<g id="Node000002" class="node">
<title>Node2</title>
<g id="a_Node000002"><a xlink:title=" ">
<polygon fill="#e0e0e0" stroke="#999999" points="42,-19 0,-19 0,0 42,0 42,-19"/>
<text text-anchor="middle" x="21" y="-7" font-family="Helvetica,sans-Serif" font-size="10.00">array</text>
</a>
</g>
</g>
<!-- Node1&#45;&gt;Node2 -->
<g id="edge1_Node000001_Node000002" class="edge">
<title>Node1&#45;&gt;Node2</title>
<g id="a_edge1_Node000001_Node000002"><a xlink:title=" ">
<path fill="none" stroke="#63b8ff" d="M194.65,-109.94C168.5,-102.48 131.69,-90.3 102,-74 77.95,-60.79 53.61,-40.58 37.98,-26.52"/>
<polygon fill="#63b8ff" stroke="#63b8ff" points="39.98,-23.61 30.25,-19.43 35.25,-28.77 39.98,-23.61"/>
</a>
</g>
</g>
<!-- Node3 -->
<g id="Node000003" class="node">
<title>Node3</title>
<g id="a_Node000003"><a xlink:title=" ">
<polygon fill="#e0e0e0" stroke="#999999" points="113.5,-19 60.5,-19 60.5,0 113.5,0 113.5,-19"/>
<text text-anchor="middle" x="87" y="-7" font-family="Helvetica,sans-Serif" font-size="10.00">cstddef</text>
</a>
</g>
</g>
<!-- Node1&#45;&gt;Node3 -->
<g id="edge2_Node000001_Node000003" class="edge">
<title>Node1&#45;&gt;Node3</title>
<g id="a_edge2_Node000001_Node000003"><a xlink:title=" ">
<path fill="none" stroke="#63b8ff" d="M190.17,-109.94C167.63,-103.25 139.67,-92 120,-74 106.56,-61.7 97.69,-42.66 92.57,-28.63"/>
<polygon fill="#63b8ff" stroke="#63b8ff" points="95.86,-27.45 89.36,-19.08 89.22,-29.67 95.86,-27.45"/>
</a>
</g>
</g>
<!-- Node4 -->
<g id="Node000004" class="node">
<title>Node4</title>
<g id="a_Node000004"><a xlink:title=" ">
<polygon fill="#e0e0e0" stroke="#999999" points="257,-74 199,-74 199,-55 257,-55 257,-74"/>
<text text-anchor="middle" x="228" y="-62" font-family="Helvetica,sans-Serif" font-size="10.00">memory</text>
</a>
</g>
</g>
<!-- Node1&#45;&gt;Node4 -->
<g id="edge3_Node000001_Node000004" class="edge">
<title>Node1&#45;&gt;Node4</title>
<g id="a_edge3_Node000001_Node000004"><a xlink:title=" ">
<path fill="none" stroke="#63b8ff" d="M228,-109.75C228,-102.8 228,-92.85 228,-84.13"/>
<polygon fill="#63b8ff" stroke="#63b8ff" points="231.5,-84.09 228,-74.09 224.5,-84.09 231.5,-84.09"/>
</a>
</g>
</g>
<!-- Node5 -->
<g id="Node000005" class="node">
<title>Node5</title>
<g id="a_Node000005"><a xlink:title=" ">
<polygon fill="#e0e0e0" stroke="#999999" points="323,-74 275,-74 275,-55 323,-55 323,-74"/>
<text text-anchor="middle" x="299" y="-62" font-family="Helvetica,sans-Serif" font-size="10.00">mutex</text>
</a>
</g>
</g>
<!-- Node1&#45;&gt;Node5 -->
<g id="edge4_Node000001_Node000005" class="edge">
<title>Node1&#45;&gt;Node5</title>
<g id="a_edge4_Node000001_Node000005"><a xlink:title=" ">
<path fill="none" stroke="#63b8ff" d="M239.41,-109.98C250.11,-102 266.34,-89.88 279.16,-80.31"/>
<polygon fill="#63b8ff" stroke="#63b8ff" points="281.47,-82.96 287.39,-74.17 277.28,-77.35 281.47,-82.96"/>
</a>
</g>
</g>
<!-- Node6 -->
<g id="Node000006" class="node">
<title>Node6</title>
<g id="a_Node000006"><a xlink:title=" ">
<polygon fill="#e0e0e0" stroke="#999999" points="381,-74 341,-74 341,-55 381,-55 381,-74"/>
<text text-anchor="middle" x="361" y="-62" font-family="Helvetica,sans-Serif" font-size="10.00">span</text>
</a>
</g>
</g>
<!-- Node1&#45;&gt;Node6 -->
<g id="edge5_Node000001_Node000006" class="edge">
<title>Node1&#45;&gt;Node6</title>
<g id="a_edge5_Node000001_Node000006"><a xlink:title=" ">
<path fill="none" stroke="#63b8ff" d="M249.37,-109.98C271.67,-101.1 306.79,-87.1 331.67,-77.19"/>
<polygon fill="#63b8ff" stroke="#63b8ff" points="333,-80.43 340.99,-73.47 330.4,-73.92 333,-80.43"/>
</a>
</g>
</g>
<!-- Node7 -->
<g id="Node000007" class="node">
<title>Node7</title>
<g id="a_Node000007"><a xlink:title=" ">
<polygon fill="#e0e0e0" stroke="#999999" points="446.5,-74 399.5,-74 399.5,-55 446.5,-55 446.5,-74"/>
<text text-anchor="middle" x="423" y="-62" font-family="Helvetica,sans-Serif" font-size="10.00">vector</text>
</a>
</g>
</g>
<!-- Node1&#45;&gt;Node7 -->
<g id="edge6_Node000001_Node000007" class="edge">
<title>Node1&#45;&gt;Node7</title>
<g id="a_edge6_Node000001_Node000007"><a xlink:title=" ">
<path fill="none" stroke="#63b8ff" d="M259.33,-109.98C295.05,-100.28 353.21,-84.47 389.73,-74.54"/>
<polygon fill="#63b8ff" stroke="#63b8ff" points="390.68,-77.91 399.41,-71.91 388.85,-71.16 390.68,-77.91"/>
</a>
</g>
</g>
<!-- Node8 -->
<g id="Node000008" class="node">
<title>Node8</title>
<g id="a_Node000008"><a xlink:href="lds_8hpp.html" target="_top" xlink:title="Low&#45;discrepancy sequence generators with thread&#45;safe runtime polymorphism (ldsgen).">
<polygon fill="white" stroke="#666666" points="181,-74 129,-74 129,-55 181,-55 181,-74"/>
<text text-anchor="middle" x="155" y="-62" font-family="Helvetica,sans-Serif" font-size="10.00">lds.hpp</text>
</a>
</g>
</g>
<!-- Node1&#45;&gt;Node8 -->
<g id="edge7_Node000001_Node000008" class="edge">
<title>Node1&#45;&gt;Node8</title>
<g id="a_edge7_Node000001_Node000008"><a xlink:title=" ">
<path fill="none" stroke="#63b8ff" d="M216.27,-109.98C205.27,-102 188.58,-89.88 175.4,-80.31"/>
<polygon fill="#63b8ff" stroke="#63b8ff" points="177.09,-77.21 166.94,-74.17 172.98,-82.88 177.09,-77.21"/>
</a>
</g>
</g>
<!-- Node8&#45;&gt;Node2 -->
<g id="edge8_Node000008_Node000002" class="edge">
<title>Node8&#45;&gt;Node2</title>
<g id="a_edge8_Node000008_Node000002"><a xlink:title=" ">
<path fill="none" stroke="#63b8ff" d="M133.47,-54.98C111.26,-46.2 76.44,-32.43 51.43,-22.53"/>
<polygon fill="#63b8ff" stroke="#63b8ff" points="52.62,-19.24 42.03,-18.82 50.05,-25.75 52.62,-19.24"/>
</a>
</g>
</g>
<!-- Node8&#45;&gt;Node3 -->
<g id="edge12_Node000008_Node000003" class="edge">
<title>Node8&#45;&gt;Node3</title>
<g id="a_edge12_Node000008_Node000003"><a xlink:title=" ">
<path fill="none" stroke="#63b8ff" d="M144.07,-54.98C133.92,-47.07 118.58,-35.11 106.35,-25.58"/>
<polygon fill="#63b8ff" stroke="#63b8ff" points="108.16,-22.56 98.12,-19.17 103.86,-28.08 108.16,-22.56"/>
</a>
</g>
</g>
<!-- Node9 -->
<g id="Node000009" class="node">
<title>Node9</title>
<g id="a_Node000009"><a xlink:title=" ">
<polygon fill="#e0e0e0" stroke="#999999" points="459,-19 409,-19 409,0 459,0 459,-19"/>
<text text-anchor="middle" x="434" y="-7" font-family="Helvetica,sans-Serif" font-size="10.00">atomic</text>
</a>
</g>
</g>
<!-- Node8&#45;&gt;Node9 -->
<g id="edge9_Node000008_Node000009" class="edge">
<title>Node8&#45;&gt;Node9</title>
<g id="a_edge9_Node000008_Node000009"><a xlink:title=" ">
<path fill="none" stroke="#63b8ff" d="M181.33,-56.9C184.25,-56.23 187.18,-55.58 190,-55 279.65,-36.45 305.63,-38.34 398.94,-19.09"/>
<polygon fill="#63b8ff" stroke="#63b8ff" points="399.73,-22.5 408.8,-17.02 398.29,-15.64 399.73,-22.5"/>
</a>
</g>
</g>
<!-- Node10 -->
<g id="Node000010" class="node">
<title>Node10</title>
<g id="a_Node000010"><a xlink:title=" ">
<polygon fill="#e0e0e0" stroke="#999999" points="178.5,-19 131.5,-19 131.5,0 178.5,0 178.5,-19"/>
<text text-anchor="middle" x="155" y="-7" font-family="Helvetica,sans-Serif" font-size="10.00">cmath</text>
</a>
</g>
</g>
<!-- Node8&#45;&gt;Node10 -->
<g id="edge10_Node000008_Node000010" class="edge">
<title>Node8&#45;&gt;Node10</title>
<g id="a_edge10_Node000008_Node000010"><a xlink:title=" ">
<path fill="none" stroke="#63b8ff" d="M155,-54.75C155,-47.8 155,-37.85 155,-29.13"/>
<polygon fill="#63b8ff" stroke="#63b8ff" points="158.5,-29.09 155,-19.09 151.5,-29.09 158.5,-29.09"/>
</a>
</g>
</g>
<!-- Node11 -->
<g id="Node000011" class="node">
<title>Node11</title>
<g id="a_Node000011"><a xlink:title=" ">
<polygon fill="#e0e0e0" stroke="#999999" points="257,-19 197,-19 197,0 257,0 257,-19"/>
<text text-anchor="middle" x="227" y="-7" font-family="Helvetica,sans-Serif" font-size="10.00">concepts</text>
</a>
</g>
</g>
<!-- Node8&#45;&gt;Node11 -->
<g id="edge11_Node000008_Node000011" class="edge">
<title>Node8&#45;&gt;Node11</title>
<g id="a_edge11_Node000008_Node000011"><a xlink:title=" ">
<path fill="none" stroke="#63b8ff" d="M166.57,-54.98C177.42,-47 193.88,-34.88 206.88,-25.31"/>
<polygon fill="#63b8ff" stroke="#63b8ff" points="209.24,-27.92 215.22,-19.17 205.09,-22.28 209.24,-27.92"/>
</a>
</g>
</g>
<!-- Node12 -->
<g id="Node000012" class="node">
<title>Node12</title>
<g id="a_Node000012"><a xlink:title=" ">
<polygon fill="#e0e0e0" stroke="#999999" points="328.5,-19 275.5,-19 275.5,0 328.5,0 328.5,-19"/>
<text text-anchor="middle" x="302" y="-7" font-family="Helvetica,sans-Serif" font-size="10.00">iterator</text>
</a>
</g>
</g>
<!-- Node8&#45;&gt;Node12 -->
<g id="edge13_Node000008_Node000012" class="edge">
<title>Node8&#45;&gt;Node12</title>
<g id="a_edge13_Node000008_Node000012"><a xlink:title=" ">
<path fill="none" stroke="#63b8ff" d="M178.62,-54.98C202.9,-46.23 240.95,-32.51 268.37,-22.62"/>
<polygon fill="#63b8ff" stroke="#63b8ff" points="269.73,-25.85 277.95,-19.17 267.36,-19.27 269.73,-25.85"/>
</a>
</g>
</g>
<!-- Node13 -->
<g id="Node000013" class="node">
<title>Node13</title>
<g id="a_Node000013"><a xlink:title=" ">
<polygon fill="#e0e0e0" stroke="#999999" points="391,-19 347,-19 347,0 391,0 391,-19"/>
<text text-anchor="middle" x="369" y="-7" font-family="Helvetica,sans-Serif" font-size="10.00">limits</text>
</a>
</g>
</g>
<!-- Node8&#45;&gt;Node13 -->
<g id="edge14_Node000008_Node000013" class="edge">
<title>Node8&#45;&gt;Node13</title>
<g id="a_edge14_Node000008_Node000013"><a xlink:title=" ">
<path fill="none" stroke="#63b8ff" d="M181.33,-57.11C224.25,-46.69 306.96,-26.6 336.83,-19.19"/>
<polygon fill="#63b8ff" stroke="#63b8ff" points="337.83,-22.54 346.67,-16.71 336.12,-15.75 337.83,-22.54"/>
</a>
</g>
</g>
</g>
</svg>
